<?xml version="1.0" encoding="UTF-8"?>
<svg width="262px" height="99px" viewBox="0 0 262 99" version="1.1" xmlns="http://www.w3.org/2000/svg" xmlns:xlink="http://www.w3.org/1999/xlink">
    <!-- Generator: Sketch 61 (89581) - https://sketch.com -->
    <title>Group 2</title>
    <desc>Created with Sketch.</desc>
    <g id="Page-1" stroke="none" stroke-width="1" fill="none" fill-rule="evenodd">
        <g id="Group-2">
            <rect id="Rectangle" stroke="#000000" stroke-width="3" x="1.5" y="1.5" width="259" height="96" rx="8"></rect>
            <g id="Group" transform="translate(9.000000, 7.000000)">
                <path d="M41.8359375,52.1240234 C49.765625,52.1240234 55.3426107,50.8707682 58.5668945,48.3642578 C61.7911784,45.8577474 63.4033203,41.6080729 63.4033203,35.6152344 L63.4033203,35.6152344 L63.4033203,0.615234375 L47.8515625,0.615234375 L47.8515625,30.7958984 C47.8515625,34.0999349 47.1110026,36.3728841 45.6298828,37.6147461 C44.148763,38.8566081 41.2320964,39.4775391 36.8798828,39.4775391 L36.8798828,39.4775391 L28.0615234,39.4775391 C22.820638,39.4775391 19.4197591,38.8907878 17.8588867,37.7172852 C16.2980143,36.5437826 15.5175781,34.2366536 15.5175781,30.7958984 L15.5175781,30.7958984 L15.5175781,0.615234375 L0,0.615234375 L0,35.6152344 C0,41.8359375 1.74886068,46.1425781 5.24658203,48.5351562 C8.74430339,50.9277344 15.1529948,52.1240234 24.4726562,52.1240234 L24.4726562,52.1240234 L41.8359375,52.1240234 Z M130.018066,52.1240234 C138.813639,52.1240234 144.983073,51.1157227 148.526367,49.0991211 C152.069661,47.0825195 153.841309,43.6816406 153.841309,38.8964844 L153.841309,22.1826172 L119.388184,22.1826172 L119.388184,32.4707031 L137.674316,32.4707031 L137.674316,32.6416016 C137.765462,33.2796224 137.811035,33.7353516 137.811035,34.0087891 C137.811035,35.9912109 136.967936,37.3868815 135.281738,38.1958008 C133.59554,39.0047201 130.519368,39.4091797 126.053223,39.4091797 L117.063965,39.4091797 C112.096517,39.4091797 108.769694,38.7255859 107.083496,37.3583984 C105.397298,35.9912109 104.554199,33.4733073 104.554199,29.8046875 L104.554199,22.7294922 C104.554199,18.6051432 105.300456,15.9049479 106.792969,14.6289062 C108.285482,13.3528646 111.686361,12.7148438 116.995605,12.7148438 L126.053223,12.7148438 C131.020671,12.7148438 134.210775,13.1477865 135.623535,14.0136719 C137.036296,14.8795573 137.742676,16.4860026 137.742676,18.8330078 L137.742676,18.9697266 L153.328613,18.9697266 C153.3514,18.6279297 153.36849,18.2519531 153.379883,17.8417969 C153.391276,17.4316406 153.396973,16.8505859 153.396973,16.0986328 C153.396973,12.9541016 153.015299,10.3393555 152.251953,8.25439453 C151.488607,6.16943359 150.309408,4.51171875 148.714355,3.28125 C147.187663,2.09635417 145.091309,1.25325521 142.425293,0.751953125 C139.759277,0.250651042 135.623535,0 130.018066,0 L112.654785,0 C103.562988,0 97.2910156,1.44124349 93.8388672,4.32373047 C90.3867188,7.20621745 88.6606445,12.2932943 88.6606445,19.5849609 L88.6606445,33.4619141 C88.6606445,37.0621745 89.1277669,40.0415039 90.0620117,42.3999023 C90.9962565,44.7583008 92.4887695,46.7464193 94.5395508,48.3642578 C96.2941081,49.7314453 98.4360352,50.6998698 100.965332,51.2695312 C103.494629,51.8391927 107.4139,52.1240234 112.723145,52.1240234 L130.018066,52.1240234 Z M179.373535,51.5087891 L179.373535,0.615234375 L163.821777,0.615234375 L163.821777,51.5087891 L179.373535,51.5087891 Z M223.67041,51.5087891 L223.67041,13.0908203 L244.964355,13.0908203 L244.964355,0.615234375 L186.858887,0.615234375 L186.858887,13.0908203 L208.152832,13.0908203 L208.152832,51.5087891 L223.67041,51.5087891 Z" id="UGIT" fill="#000000" fill-rule="nonzero"></path>
                <polygon id="Rectangle" fill="#000000" fill-rule="nonzero" points="70 22.1787891 101 22.1787891 101 32.4687891 70 32.4687891"></polygon>
                <rect id="Rectangle" fill="#F9623F" x="0" y="64" width="245" height="21"></rect>
                <path d="M80.641,79 L80.641,77.7 L77.924,77.7 L77.924,77.505 C77.924,77.1843333 77.9976667,76.8831667 78.145,76.6015 C78.2923333,76.3198333 78.5783333,75.9536667 79.003,75.503 C79.653,74.8183333 80.1101667,74.2116667 80.3745,73.683 C80.6388333,73.1543333 80.771,72.6126667 80.771,72.058 C80.771,71.3213333 80.589,70.7558333 80.225,70.3615 C79.861,69.9671667 79.3323333,69.77 78.639,69.77 C77.9456667,69.77 77.417,69.9671667 77.053,70.3615 C76.689,70.7558333 76.507,71.3213333 76.507,72.058 L76.507,72.058 L76.507,72.942 L77.859,72.942 L77.859,71.967 C77.859,71.369 78.106,71.07 78.6,71.07 C78.8426667,71.07 79.0268333,71.1458333 79.1525,71.2975 C79.2781667,71.4491667 79.341,71.72 79.341,72.11 C79.341,72.5433333 79.2391667,72.9593333 79.0355,73.358 C78.8318333,73.7566667 78.4656667,74.2376667 77.937,74.801 C77.3996667,75.3643333 77.027,75.8778333 76.819,76.3415 C76.611,76.8051667 76.507,77.362 76.507,78.012 L76.507,78.012 L76.507,79 L80.641,79 Z M85.7913636,79 L85.7913636,77.349 L86.4673636,77.349 L86.4673636,76.049 L85.7913636,76.049 L85.7913636,69.9 L84.2313636,69.9 L81.6313636,76.049 L81.6313636,77.349 L84.3613636,77.349 L84.3613636,79 L85.7913636,79 Z M84.3613636,76.049 L82.9313636,76.049 L84.3353636,72.5 L84.3613636,72.5 L84.3613636,76.049 Z M88.2247273,79 L91.8127273,69.9 L90.5777273,69.9 L86.9897273,79 L88.2247273,79 Z M94.6620909,79 L96.8980909,71.148 L96.8980909,69.9 L92.6080909,69.9 L92.6080909,71.2 L95.4940909,71.2 L93.2060909,79 L94.6620909,79 Z M102.479818,79.13 C103.173152,79.13 103.701818,78.9328333 104.065818,78.5385 C104.429818,78.1441667 104.611818,77.5786667 104.611818,76.842 L104.611818,76.842 L104.611818,73.865 L102.544818,73.865 L102.544818,75.165 L103.259818,75.165 L103.259818,76.946 C103.259818,77.5353333 103.012818,77.83 102.518818,77.83 C102.024818,77.83 101.777818,77.5353333 101.777818,76.946 L101.777818,76.946 L101.777818,71.967 C101.777818,71.369 102.024818,71.07 102.518818,71.07 C103.012818,71.07 103.259818,71.369 103.259818,71.967 L103.259818,71.967 L103.259818,72.838 L104.611818,72.838 L104.611818,72.058 C104.611818,71.3213333 104.429818,70.7558333 104.065818,70.3615 C103.701818,69.9671667 103.173152,69.77 102.479818,69.77 C101.786485,69.77 101.257818,69.9671667 100.893818,70.3615 C100.529818,70.7558333 100.347818,71.3213333 100.347818,72.058 L100.347818,72.058 L100.347818,76.842 C100.347818,77.5786667 100.529818,78.1441667 100.893818,78.5385 C101.257818,78.9328333 101.786485,79.13 102.479818,79.13 Z M107.201182,79 L107.201182,69.9 L105.771182,69.9 L105.771182,79 L107.201182,79 Z M111.051545,79 L111.051545,71.2 L112.546545,71.2 L112.546545,69.9 L108.126545,69.9 L108.126545,71.2 L109.621545,71.2 L109.621545,79 L111.051545,79 Z M114.901909,79 L114.901909,74.905 L116.435909,74.905 L116.435909,79 L117.865909,79 L117.865909,69.9 L116.435909,69.9 L116.435909,73.605 L114.901909,73.605 L114.901909,69.9 L113.471909,69.9 L113.471909,79 L114.901909,79 Z M121.248273,79.13 C121.941606,79.13 122.470273,78.9328333 122.834273,78.5385 C123.198273,78.1441667 123.380273,77.5786667 123.380273,76.842 L123.380273,76.842 L123.380273,69.9 L122.002273,69.9 L122.002273,76.946 C122.002273,77.258 121.939439,77.4833333 121.813773,77.622 C121.688106,77.7606667 121.508273,77.83 121.274273,77.83 C121.040273,77.83 120.860439,77.7606667 120.734773,77.622 C120.609106,77.4833333 120.546273,77.258 120.546273,76.946 L120.546273,76.946 L120.546273,69.9 L119.116273,69.9 L119.116273,76.842 C119.116273,77.5786667 119.298273,78.1441667 119.662273,78.5385 C120.026273,78.9328333 120.554939,79.13 121.248273,79.13 Z M126.879636,79 C127.590303,79 128.129803,78.8158333 128.498136,78.4475 C128.86647,78.0791667 129.050636,77.544 129.050636,76.842 L129.050636,76.842 L129.050636,76.062 C129.050636,75.0393333 128.695303,74.4066667 127.984636,74.164 L127.984636,74.164 L127.984636,74.138 C128.296636,74.008 128.52847,73.7956667 128.680136,73.501 C128.831803,73.2063333 128.907636,72.825 128.907636,72.357 L128.907636,72.357 L128.907636,71.993 C128.907636,71.2823333 128.738636,70.7558333 128.400636,70.4135 C128.062636,70.0711667 127.525303,69.9 126.788636,69.9 L126.788636,69.9 L124.630636,69.9 L124.630636,79 L126.879636,79 Z M126.619636,73.605 L126.060636,73.605 L126.060636,71.2 L126.749636,71.2 C127.00097,71.2 127.185136,71.2736667 127.302136,71.421 C127.419136,71.5683333 127.477636,71.8066667 127.477636,72.136 L127.477636,72.136 L127.477636,72.643 C127.477636,72.9896667 127.406136,73.2366667 127.263136,73.384 C127.120136,73.5313333 126.905636,73.605 126.619636,73.605 L126.619636,73.605 Z M126.879636,77.7 L126.060636,77.7 L126.060636,74.905 L126.697636,74.905 C127.02697,74.905 127.263136,74.9851667 127.406136,75.1455 C127.549136,75.3058333 127.620636,75.594 127.620636,76.01 L127.620636,76.01 L127.620636,76.803 C127.620636,77.1323333 127.55997,77.3641667 127.438636,77.4985 C127.317303,77.6328333 127.13097,77.7 126.879636,77.7 L126.879636,77.7 Z M134.294364,79.13 C134.996364,79.13 135.53153,78.9306667 135.899864,78.532 C136.268197,78.1333333 136.452364,77.5613333 136.452364,76.816 C136.452364,76.244 136.339697,75.7456667 136.114364,75.321 C135.88903,74.8963333 135.477364,74.424 134.879364,73.904 C134.411364,73.4966667 134.08853,73.15 133.910864,72.864 C133.733197,72.578 133.644364,72.2703333 133.644364,71.941 C133.644364,71.3603333 133.882697,71.07 134.359364,71.07 C134.593364,71.07 134.77103,71.1415 134.892364,71.2845 C135.013697,71.4275 135.074364,71.655 135.074364,71.967 L135.074364,71.967 L135.074364,72.435 L136.426364,72.435 L136.426364,72.058 C136.426364,71.3213333 136.250864,70.7558333 135.899864,70.3615 C135.548864,69.9671667 135.03103,69.77 134.346364,69.77 C133.65303,69.77 133.124364,69.9671667 132.760364,70.3615 C132.396364,70.7558333 132.214364,71.3126667 132.214364,72.032 C132.214364,72.5606667 132.331364,73.0351667 132.565364,73.4555 C132.799364,73.8758333 133.21103,74.346 133.800364,74.866 C134.268364,75.2733333 134.58903,75.6221667 134.762364,75.9125 C134.935697,76.2028333 135.022364,76.5386667 135.022364,76.92 C135.022364,77.2406667 134.95953,77.4725 134.833864,77.6155 C134.708197,77.7585 134.52403,77.83 134.281364,77.83 C133.787364,77.83 133.540364,77.5353333 133.540364,76.946 L133.540364,76.946 L133.540364,76.322 L132.188364,76.322 L132.188364,76.842 C132.188364,77.5786667 132.36603,78.1441667 132.721364,78.5385 C133.076697,78.9328333 133.60103,79.13 134.294364,79.13 Z M140.055727,79 L140.055727,71.2 L141.550727,71.2 L141.550727,69.9 L137.130727,69.9 L137.130727,71.2 L138.625727,71.2 L138.625727,79 L140.055727,79 Z M144.491091,79.13 C145.193091,79.13 145.730424,78.9306667 146.103091,78.532 C146.475758,78.1333333 146.662091,77.57 146.662091,76.842 L146.662091,76.842 L146.662091,72.058 C146.662091,71.33 146.475758,70.7666667 146.103091,70.368 C145.730424,69.9693333 145.193091,69.77 144.491091,69.77 C143.789091,69.77 143.251758,69.9693333 142.879091,70.368 C142.506424,70.7666667 142.320091,71.33 142.320091,72.058 L142.320091,72.058 L142.320091,76.842 C142.320091,77.57 142.506424,78.1333333 142.879091,78.532 C143.251758,78.9306667 143.789091,79.13 144.491091,79.13 Z M144.491091,77.83 C143.997091,77.83 143.750091,77.531 143.750091,76.933 L143.750091,76.933 L143.750091,71.967 C143.750091,71.369 143.997091,71.07 144.491091,71.07 C144.985091,71.07 145.232091,71.369 145.232091,71.967 L145.232091,71.967 L145.232091,76.933 C145.232091,77.531 144.985091,77.83 144.491091,77.83 Z M149.290455,79 L149.290455,75.1 L149.784455,75.1 C150.113788,75.1 150.345621,75.1823333 150.479955,75.347 C150.614288,75.5116667 150.681455,75.802 150.681455,76.218 L150.681455,76.218 L150.681455,77.882 C150.681455,78.22 150.690121,78.454 150.707455,78.584 C150.724788,78.714 150.759455,78.8526667 150.811455,79 L150.811455,79 L152.267455,79 C152.198121,78.844 152.154788,78.6858333 152.137455,78.5255 C152.120121,78.3651667 152.111455,78.155 152.111455,77.895 L152.111455,77.895 L152.111455,76.296 C152.111455,75.7586667 152.039955,75.3296667 151.896955,75.009 C151.753955,74.6883333 151.509121,74.476 151.162455,74.372 L151.162455,74.372 L151.162455,74.346 C151.786455,74.0946667 152.098455,73.4966667 152.098455,72.552 L152.098455,72.552 L152.098455,71.993 C152.098455,71.2823333 151.929455,70.7558333 151.591455,70.4135 C151.253455,70.0711667 150.716121,69.9 149.979455,69.9 L149.979455,69.9 L147.860455,69.9 L147.860455,79 L149.290455,79 Z M149.810455,73.8 L149.290455,73.8 L149.290455,71.2 L149.940455,71.2 C150.191788,71.2 150.375955,71.2736667 150.492955,71.421 C150.609955,71.5683333 150.668455,71.8066667 150.668455,72.136 L150.668455,72.136 L150.668455,72.838 C150.668455,73.1846667 150.596955,73.4316667 150.453955,73.579 C150.310955,73.7263333 150.096455,73.8 149.810455,73.8 L149.810455,73.8 Z M154.284818,79 L154.544818,77.219 L156.169818,77.219 L156.169818,77.193 L156.429818,79 L157.859818,79 L156.377818,69.9 L154.440818,69.9 L152.958818,79 L154.284818,79 Z M156.000818,75.984 L154.713818,75.984 L155.337818,71.486 L155.363818,71.486 L156.000818,75.984 Z M160.787182,79.13 C161.480515,79.13 162.009182,78.9328333 162.373182,78.5385 C162.737182,78.1441667 162.919182,77.5786667 162.919182,76.842 L162.919182,76.842 L162.919182,73.865 L160.852182,73.865 L160.852182,75.165 L161.567182,75.165 L161.567182,76.946 C161.567182,77.5353333 161.320182,77.83 160.826182,77.83 C160.332182,77.83 160.085182,77.5353333 160.085182,76.946 L160.085182,76.946 L160.085182,71.967 C160.085182,71.369 160.332182,71.07 160.826182,71.07 C161.320182,71.07 161.567182,71.369 161.567182,71.967 L161.567182,71.967 L161.567182,72.838 L162.919182,72.838 L162.919182,72.058 C162.919182,71.3213333 162.737182,70.7558333 162.373182,70.3615 C162.009182,69.9671667 161.480515,69.77 160.787182,69.77 C160.093848,69.77 159.565182,69.9671667 159.201182,70.3615 C158.837182,70.7558333 158.655182,71.3213333 158.655182,72.058 L158.655182,72.058 L158.655182,76.842 C158.655182,77.5786667 158.837182,78.1441667 159.201182,78.5385 C159.565182,78.9328333 160.093848,79.13 160.787182,79.13 Z M167.978545,79 L167.978545,77.7 L165.508545,77.7 L165.508545,74.905 L167.471545,74.905 L167.471545,73.605 L165.508545,73.605 L165.508545,71.2 L167.978545,71.2 L167.978545,69.9 L164.078545,69.9 L164.078545,79 L167.978545,79 Z" id="24/7GITHUBSTORAGE" fill="#FFFFFF" fill-rule="nonzero"></path>
            </g>
        </g>
    </g>
</svg>